<svg width="20" height="20" viewBox="0 0 20 20" fill="none" xmlns="http://www.w3.org/2000/svg">
<path d="M4.51246 3H14.513C15.3474 3 16.0254 3.678 16.0254 4.51246V6.18138C16.0254 6.79419 15.6473 7.55042 15.2692 7.92854L12.0096 10.81C11.5532 11.1882 11.2533 11.9444 11.2533 12.5572V15.8168C11.2533 16.2732 10.9535 16.8729 10.5753 17.1076L9.51923 17.7726C8.52831 18.3854 7.17231 17.6943 7.17231 16.4818V12.4659C7.17231 11.9313 6.87242 11.2533 6.5595 10.8752L3.678 7.83727C3.29988 7.47219 3 6.78115 3 6.32481V4.59069C3 3.678 3.678 3 4.51246 3Z" stroke="#080210" stroke-width="1.5" stroke-miterlimit="10" stroke-linecap="round" stroke-linejoin="round"/>
</svg>
