<svg width="24" height="24" viewBox="0 0 24 24" fill="none" xmlns="http://www.w3.org/2000/svg">
<path d="M6.13994 4.648C7.70211 3.10944 9.80733 2.24795 11.9999 2.25C14.1959 2.25 16.3039 3.111 17.8599 4.648C19.2689 6.038 20.0029 7.594 20.1969 9.21C20.3899 10.812 20.0449 12.42 19.3869 13.928C18.0809 16.928 15.4849 19.656 12.9949 21.431C12.7047 21.6386 12.3568 21.7503 11.9999 21.7503C11.6431 21.7503 11.2952 21.6386 11.0049 21.431C8.51494 19.656 5.91894 16.927 4.61194 13.928C3.95494 12.42 3.61094 10.812 3.80294 9.209C3.99694 7.594 4.73094 6.039 6.13994 4.648ZM9.24994 10C9.24994 9.27066 9.53967 8.57118 10.0554 8.05546C10.5711 7.53973 11.2706 7.25 11.9999 7.25C12.7293 7.25 13.4288 7.53973 13.9445 8.05546C14.4602 8.57118 14.7499 9.27066 14.7499 10C14.7499 10.7293 14.4602 11.4288 13.9445 11.9445C13.4288 12.4603 12.7293 12.75 11.9999 12.75C11.2706 12.75 10.5711 12.4603 10.0554 11.9445C9.53967 11.4288 9.24994 10.7293 9.24994 10Z" fill="black"/>
</svg>
